<svg width="63" height="63" viewBox="0 0 63 63" fill="none" xmlns="http://www.w3.org/2000/svg">
<path d="M23.2541 31.4913L23.0402 31.9933L23.0314 32.0294L23.0226 32.0558L23.0051 32.1261L22.9963 32.1525L22.9875 32.1876V32.2228L22.9787 32.2492V32.4083L22.9875 32.4347V32.4523L22.9963 32.4874L23.0139 32.5402L23.0314 32.5665L23.0402 32.5929L23.0578 32.6193L23.0666 32.6368L23.093 32.6544L23.1018 32.672L23.1193 32.6906L23.1457 32.6993L23.1633 32.7169L23.1809 32.7257L23.2082 32.7345L23.2346 32.7433L23.2521 32.7521L23.2873 32.7609H23.4016L23.4279 32.7521L23.4631 32.7433L23.507 32.7345L23.5344 32.7257L23.5783 32.7169L23.6135 32.7081L23.6486 32.6906L23.6926 32.672L23.7365 32.6544L23.7717 32.6368L23.8156 32.6193L23.8781 32.5841L23.9396 32.549L23.9748 32.5314L24.0012 32.5138L24.0715 32.4786L24.1066 32.4523L24.1418 32.4347L24.2043 32.3908L24.2394 32.3644L24.2834 32.337L24.3185 32.3107L24.3625 32.2843L24.7326 32.0197L24.5393 33.9952V34.1974H24.548L24.5744 34.2062L24.6096 34.2238L24.6711 34.2413L24.7326 34.2677L24.7853 34.2853L24.8478 34.3126L24.9094 34.339L24.9621 34.3566L24.9885 34.3742L25.0148 34.3829L25.0764 34.4005L25.1027 34.4093L25.1291 34.4269L25.1828 34.4445L25.2883 34.4796L25.3322 34.4972L25.385 34.5148L25.4289 34.5411L25.4826 34.5587L25.6144 34.6115L25.6584 34.63H25.6848L25.7023 34.6388L25.7463 34.6564L25.7639 34.6652L25.7824 34.674L25.8176 34.6915H25.8439L25.9318 34.7355L25.967 34.7443L26.0021 34.7618L26.0373 34.7706L26.0725 34.7882H26.09L26.0988 34.797L26.135 34.8058L26.1613 34.8146L26.1877 34.8322L26.2141 34.841L26.2492 34.8497H26.258L26.2668 34.8585L26.3195 34.8761L26.3371 34.8849H26.3459L26.3547 34.8937H26.3723L26.381 34.9025H26.3986L26.4162 34.9113L26.4348 34.9201L26.4523 34.9288H26.4611L26.4699 34.9376H26.4875L26.4963 34.9474H26.5051L26.5226 34.9562H26.5314L26.5402 34.965H26.5578L26.5666 34.9738H26.5842L26.3723 35.5285L26.3898 35.546L26.3986 35.5636L26.4348 35.5997L26.4435 35.6173L26.5314 35.7052L26.5754 35.7404L26.6281 35.7755L26.6721 35.8107L26.7424 35.8458L26.7609 35.8546L26.7785 35.8722L26.8312 35.8986L26.8752 35.9259L26.9807 35.9786L27.0422 36.0138L27.0246 36.0841L27.007 36.1193L26.9894 36.1632L26.9807 36.1984L26.9631 36.2345L26.9543 36.2785L26.9367 36.3224L26.9279 36.3576L26.9103 36.4015L26.8928 36.4367L26.884 36.4806L26.8664 36.5333L26.8488 36.5783L26.8137 36.6661L26.7961 36.7189L26.7609 36.8068L26.7424 36.8595L26.716 36.9132L26.6984 36.9572L26.6633 37.0626L26.6369 37.1242L26.6193 37.1681L26.593 37.2306L26.5754 37.2833L26.549 37.3361L26.5314 37.3976L26.5051 37.4503L26.4875 37.5118L26.4523 37.5743L26.4348 37.6447L26.3986 37.7062L26.3723 37.7677L26.3547 37.8292L26.3283 37.8917L26.3019 37.9445L26.2844 38.006L26.258 38.0587L26.2404 38.1202L26.2141 38.174L26.1965 38.2179L26.1789 38.2794L26.1437 38.3673L26.1174 38.4201L26.0988 38.464L26.0812 38.5089L26.0725 38.5529L26.0549 38.5968L26.0373 38.632L26.0197 38.6759L26.0021 38.7111L25.9934 38.7462L25.9758 38.7814L25.967 38.8165L25.9582 38.8527L25.9406 38.8878L25.9055 38.9933L25.8527 39.0109L25.8088 39.0197L25.7639 39.0285H25.7375L25.7023 39.046L25.676 39.0548L25.6057 39.0724L25.5793 39.0812L25.5441 39.09H25.5353L25.5002 39.1076L25.4738 39.1163L25.4553 39.1251L25.4377 39.1339L25.4201 39.1437L25.341 39.2228L25.3234 39.2492L25.3059 39.2667L25.2883 39.2931L25.2707 39.3107L25.2619 39.337L25.2443 39.3546L25.2268 39.381L25.2004 39.4601L25.1828 39.4874V39.5138L25.174 39.549L25.1476 39.6281V39.7775L25.1564 39.8048V39.8224L25.1652 39.8488L25.1828 39.8839L25.2004 39.9103L25.0939 40.4035L25.1203 40.4484L25.1564 40.4835L25.2268 40.5538L25.2707 40.589L25.3146 40.6329L25.4025 40.7033L25.4553 40.7472L25.509 40.7833L25.6144 40.8712L25.676 40.9152L25.7287 40.9503L25.7912 40.9943L25.8615 41.047H25.8791L25.8879 41.0558L25.9143 41.0734H25.9318L25.9406 41.0822H25.9758L26.0021 41.0919H26.0725L26.09 41.0822H26.1086L26.3459 41.0206L26.3723 41.0822L26.4074 41.1359L26.4523 41.1974L26.5578 41.3556L26.593 41.3995L26.6457 41.4533L26.6809 41.4972L26.7248 41.5411L26.7697 41.5763L26.8137 41.6202L26.9016 41.6906L26.9543 41.7257L26.9982 41.7618L27.051 41.7882L27.1047 41.8234L27.1486 41.841L27.2014 41.8673L27.2629 41.8849L27.3156 41.9113L27.3684 41.9201L27.4309 41.9376L27.4836 41.9552L27.5363 41.964L27.5978 41.9728L27.6682 41.9816L27.7209 41.9904H27.9504L27.9768 41.9816H28.0207L28.0471 41.9728L28.0656 41.964H28.0832L28.1096 41.9552H28.1184L28.1271 41.9464H28.1535V41.9376H28.1711L28.2062 41.9288L28.215 41.9201L28.2326 41.9113L28.259 41.9025L28.2853 41.8849L28.3205 41.8761V41.8673H28.3293L28.3469 41.8585L28.3742 41.841L28.383 41.8322L28.4357 41.8058L28.4445 41.7882L28.4797 41.7706L28.4885 41.7618L28.506 41.7531V41.7443L28.5148 41.7355H28.5236V41.7257L28.5412 41.7169L28.55 41.6993L28.5851 41.6642L28.6115 41.6466V41.629H28.6203L28.6291 41.6202L28.6467 41.5851L28.6643 41.5587L28.673 41.5324L28.6906 41.506L28.7004 41.4796L28.718 41.4533V41.4357L28.7268 41.4181L28.7355 41.382L28.7443 41.3468V41.3117L28.7619 41.2413V41.171L28.7707 41.1359V41.0734L28.7619 41.0382V40.9679L28.7531 40.9327V40.8976L28.7443 40.8712L28.7355 40.8361L28.7268 40.7921L28.7092 40.756L28.7004 40.7296L28.6906 40.6945L28.6555 40.6417L28.6467 40.6066L28.6291 40.5802L28.6027 40.5538L28.5851 40.5275L28.5588 40.5011L28.5412 40.4747L28.5148 40.4572L28.4973 40.4298L28.4709 40.4122L28.4006 40.3595L28.3557 40.3331L28.3205 40.3156L28.2414 40.2716L28.2062 40.2628L28.1359 40.2277L28.092 40.2101L28.0568 40.2013L28.0207 40.1925L27.9152 40.1661H27.8801L27.8361 40.1574H27.6945L27.6594 40.1661H27.6242L27.5803 40.1749L27.4748 40.2013L27.4484 40.2189L27.4045 40.2365L27.3684 40.2452L27.298 40.2804L27.2717 40.2628L27.2541 40.2452L27.2014 40.2101L27.175 40.1837L27.1486 40.1661L27.131 40.1398L27.1135 40.1124L27.0783 40.0597L27.0598 40.0333L27.0422 40.007L27.0246 39.9718L27.007 39.9454L26.9982 39.9103L26.9807 39.8839L26.9631 39.796L26.9543 39.7599L26.9279 39.6544L26.9016 39.5929L26.8928 39.5577L26.8664 39.4786L26.8576 39.4513L26.84 39.4249L26.8312 39.3986L26.8225 39.381L26.7873 39.3546L26.7609 39.3195L26.7248 39.2931L26.7072 39.2755L26.6545 39.1964V39.1788L26.6896 39.0636L26.7072 39.0021L26.7248 38.9493L26.7697 38.8351L26.8049 38.7199L26.8312 38.6671L26.884 38.5089L26.9191 38.3937L26.9894 38.1827L27.0334 38.0851L27.0685 37.9796L27.1047 37.8829L27.1398 37.7853L27.1574 37.7326L27.175 37.6886L27.2014 37.5919L27.2453 37.5031L27.2717 37.4064L27.342 37.2306L27.3684 37.1417L27.4045 37.0538L27.4396 36.9747L27.466 36.8868L27.5012 36.8068L27.5275 36.7277L27.5627 36.6486L27.5891 36.5695L27.6242 36.4982L27.6506 36.4191L27.6769 36.3576L27.6945 36.3224L27.7033 36.2785L27.7307 36.216H28.2853L28.2941 36.2072H28.3742L28.4182 36.1984H28.4797L28.506 36.1896H28.5236L28.55 36.1808H28.5939L28.6027 36.172H28.6291L28.673 36.1632L28.7004 36.1544L28.718 36.1456L28.7619 36.1368L28.7883 36.1281H28.8146L28.9025 36.0929L28.9113 36.0841H28.9201L28.9377 36.0753L28.9816 36.049L29.008 36.0402H29.0168L29.0266 36.0314L29.0617 36.0138L29.1057 35.9874L29.1408 35.9699L29.1848 35.9435V35.9347L29.1935 35.9259L29.2111 35.9171L29.2199 35.8986L29.2375 35.881V35.8634H29.2463V35.8283L29.1496 35.1495L32.0236 35.2023L31.9445 35.3878L31.926 35.4142L31.9172 35.4406L31.8996 35.4669V35.4933L31.8908 35.5285L31.882 35.546V35.591L31.8996 35.6261L31.9348 35.6701L31.9709 35.7052L32.006 35.7404L32.0324 35.7579L32.0676 35.7931L32.0939 35.8107L32.1467 35.837L32.1906 35.8722L32.5695 36.0665L32.4992 36.2433L32.4641 36.3312L32.4377 36.4191L32.4025 36.507L32.3674 36.5958L32.2971 36.7716L32.2619 36.8683L32.2258 36.9572L32.1555 37.1505L32.0851 37.3361L32.0148 37.5392L31.9797 37.6271L31.9445 37.7326L31.8732 37.9357L31.7941 38.1378L31.6535 38.5617L31.6086 38.6671L31.5734 38.7726L31.5383 38.8878L31.4943 38.9933L31.4592 39.0988L31.424 39.214H31.3625L31.301 39.2228L31.2385 39.2316L31.1857 39.2492L31.1242 39.2579L31.0715 39.2843L31.0275 39.3019L30.9748 39.3283L30.9299 39.3634L30.9035 39.3722L30.8859 39.3898L30.842 39.4249L30.8068 39.4786L30.7805 39.4962L30.7629 39.5226L30.7453 39.5402L30.6926 39.6193L30.6662 39.6808L30.6486 39.7072L30.6389 39.7335L30.6213 39.7599L30.6125 39.7863V39.8136L30.6037 39.8488V39.9982L30.6125 40.0245L30.6213 40.0597L30.6301 40.0861L30.6486 40.1124L30.6574 40.1486L30.551 40.589L30.5773 40.6505L30.5949 40.6769L30.6213 40.7033L30.6486 40.7296L30.6838 40.756L30.7101 40.7745L30.7453 40.8009L30.7805 40.8361L30.8244 40.8624L30.8596 40.8888L30.9035 40.9152L30.9475 40.9503L31.0012 40.9767L31.0451 41.0031L31.0978 41.047L31.1506 41.0734L31.2121 41.1095L31.2385 41.1271L31.2648 41.1359L31.301 41.1535L31.3361 41.1622H31.3537L31.3713 41.171H31.4943L31.7853 41.1359L31.9533 41.2941L32.006 41.3468L32.0324 41.3644L32.0588 41.3908L32.0764 41.4181L32.1291 41.4533L32.1555 41.4796L32.2346 41.5324L32.2619 41.5499L32.3234 41.5851L32.4289 41.6554L32.4816 41.6818L32.5432 41.7081L32.5695 41.7169L32.5969 41.7257L32.6232 41.7355L32.6408 41.7531L32.7463 41.7882H32.7639L32.7726 41.797L32.8254 41.8146L32.843 41.8234L32.8957 41.8322L32.923 41.841H32.9494L32.9758 41.8497H33.0021L33.0109 41.8585H33.0725L33.09 41.8673H33.1428L33.1691 41.8761H33.3283L33.3723 41.8673H33.4162L33.425 41.8585H33.4514L33.4777 41.8497H33.5041L33.5305 41.841L33.5578 41.8322L33.5754 41.8234H33.6018L33.6193 41.8146L33.6281 41.8058H33.6457L33.6633 41.7882L33.716 41.7706L33.7336 41.7531L33.7512 41.7443L33.76 41.7355H33.7775L33.7951 41.7169L33.8127 41.7081L33.8478 41.673L33.8654 41.6642L33.8742 41.6554L33.884 41.6466L33.9016 41.629H33.9103V41.6202H33.9191V41.6115L33.9367 41.5851L33.9894 41.5324L33.9982 41.5148L34.0158 41.4884L34.0334 41.4708L34.051 41.4445L34.0685 41.4093L34.0861 41.3732L34.1213 41.3204L34.1301 41.2941L34.1476 41.2677L34.174 41.1886L34.1828 41.171L34.1916 41.1447L34.2004 41.1271L34.2101 41.1007V41.0822L34.2189 41.0646L34.2277 41.0118V40.8009L34.2189 40.756L34.2101 40.7296V40.7033L34.1916 40.6593L34.174 40.6066L34.1564 40.5626L34.1476 40.5363L34.1389 40.5187L34.1125 40.4747L34.0773 40.4298L34.0598 40.4035L34.0422 40.3859L34.007 40.3419L33.9455 40.2804L33.9103 40.254L33.8742 40.2365L33.8478 40.2101L33.8127 40.1925L33.7863 40.1749L33.7512 40.1661L33.716 40.1486L33.6809 40.1398L33.6457 40.1222L33.6018 40.1124H33.5666L33.5305 40.1036H33.4865L33.4426 40.0949H33.3195L33.2756 40.1036H33.2307L33.1779 40.1124L33.134 40.1222L33.1164 40.131H33.0812L33.0373 40.1486L32.9846 40.1574L32.9406 40.1749L32.8869 40.1925L32.7551 40.2365L32.7287 40.254L32.6672 40.2716L32.6144 40.298H32.5783L32.5607 40.2892L32.5519 40.2804H32.5344L32.508 40.2716L32.4904 40.2628L32.4816 40.2452L32.4641 40.2365L32.4113 40.1837L32.4025 40.1661L32.385 40.1486L32.3674 40.1222L32.3586 40.1036L32.341 40.0421L32.3322 39.9806L32.3146 39.9191L32.2795 39.8136L32.2619 39.7599L32.2521 39.7335L32.2434 39.716L32.2258 39.672L32.2082 39.6193L32.1818 39.5753L32.1643 39.5402L32.1115 39.4699L32.0851 39.4249L32.0324 39.3722L32.0851 39.2492L32.1291 39.1163L32.173 38.9933L32.217 38.879L32.2619 38.755L32.3059 38.632L32.3498 38.5177L32.385 38.4025L32.4289 38.297L32.4641 38.1827L32.508 38.0763L32.5519 37.9708L32.5881 37.8742L32.6232 37.7677L32.6584 37.6622L32.6935 37.5656L32.7287 37.4679L32.7639 37.3712L32.7902 37.2833L32.8254 37.1945L32.8605 37.1066L32.8869 37.0187L32.923 36.9308L32.9494 36.8419L32.967 36.8068L32.9758 36.7628L32.9934 36.7277L33.0109 36.6837L33.0373 36.6046L33.0637 36.5333L33.0812 36.4542L33.1164 36.3839L33.134 36.3224L33.1603 36.2521L33.2219 36.2609H33.2844L33.3195 36.2697H33.3459L33.4074 36.2785H33.4601L33.4865 36.2872H33.8215L33.8654 36.2785H33.9103L33.9279 36.2697H33.9543L33.9719 36.2609H33.9894L34.1301 36.2247H34.1389V36.216H34.1476L34.1652 36.2072L34.174 36.1984L34.1916 36.1896L34.2004 36.1808L34.2189 36.1632V36.1544H34.2277V36.1456L34.2365 36.1368L34.298 35.255H34.5363L34.6154 35.2648H34.9768L35.0471 35.2736H36.1672L36.5627 31.5177H36.5656L36.5832 31.5001L36.592 31.4826L36.6008 31.4738L36.6184 31.4464L36.6359 31.4113V31.4025L36.6447 31.3849V31.3673H36.6535L36.6799 31.3146V31.297L36.6887 31.2794V31.2706L36.6975 31.2618V31.2355L36.7062 31.2267V31.2091L36.715 31.1827V31.1652L36.7238 31.1388V31.1202L36.7326 31.1115V31.0597L36.7394 31.0587H36.7414V31.0148L36.7502 30.9884V30.9533L36.759 30.9357V30.8829L36.7678 30.8302L36.7766 30.7765L36.7853 30.7238V30.6798L36.7941 30.6359L36.8029 30.6007L36.8117 30.5568V30.5343L36.8195 30.4952L36.8283 30.4689V30.4542L36.8293 30.4503L36.8381 30.424V30.4035L36.842 30.3908L57.1701 35.2326L50.2619 59.2101C49.6723 61.3388 47.4689 62.5873 45.34 61.9982L2.93378 50.2618C0.805488 49.6722 -0.44303 47.4686 0.145696 45.34L5.17011 27.1847L23.2541 31.4913ZM11.882 2.93372C12.4714 0.805296 14.6754 -0.442895 16.8039 0.145638L59.2101 11.882C61.3391 12.4712 62.5871 14.675 61.9982 16.8038L58.0793 32.0773L39.1623 27.5724L39.1643 27.5685L39.173 27.5333L39.1818 27.507V27.4806L39.1906 27.4005V27.2072L39.1818 27.1808V27.1456L39.173 27.0919L39.1643 27.0304L39.1555 26.9952L39.1115 26.8634L39.0851 26.8097L39.0764 26.7833L39.0588 26.7658L39.0324 26.713L39.0148 26.6954L38.9973 26.6691L38.9621 26.6251L38.9445 26.5988L38.9269 26.5812L38.9445 26.5548L38.9709 26.5197L38.9973 26.4933L39.0324 26.4572L39.0851 26.3868L39.1203 26.3517L39.1467 26.3165L39.1818 26.2814L39.218 26.2374L39.2443 26.1935L39.2795 26.1574L39.385 26.0255L39.4289 25.9816L39.4641 25.9376L39.508 25.8937L39.5441 25.84L39.5881 25.796L39.7639 25.5851L39.8615 25.4874L39.9055 25.4259L39.9582 25.3732L40.0109 25.3117L40.0549 25.2501L40.1076 25.1964L40.1603 25.1349L40.2141 25.0734L40.3195 24.9503L40.3723 24.88L40.4338 24.8175L40.4963 24.756L40.549 24.6857L40.6105 24.6154L40.6721 24.5538L40.7336 24.4738L40.7951 24.4122L40.8576 24.3419L40.9191 24.2628L40.9894 24.1915L41.051 24.1212L41.1125 24.0421L41.1838 23.963L41.2541 23.8829L41.3156 23.8038L41.3947 23.7335L41.4562 23.6456L41.5275 23.5656L41.6066 23.4777L41.6769 23.3986L41.7473 23.3107L41.8273 23.2306L41.8976 23.1427L42.0559 22.9669L42.1359 22.8781L42.2941 22.7023H42.3644L42.3996 22.7111H42.4973L42.5236 22.7023H42.5676L42.6291 22.6935H42.6555L42.7258 22.6759L42.7619 22.6671L42.7883 22.6583L42.8234 22.6495H42.8322L42.841 22.6408H42.8498L42.885 22.6232L42.9201 22.6144L42.9465 22.5958L42.9816 22.5783L43.008 22.5607H43.0168L43.0256 22.5519L43.0432 22.5431L43.0695 22.5255L43.1057 22.5079L43.1144 22.4992V22.4904L43.1848 22.4552L43.1935 22.4376L43.2287 22.4201L43.2551 22.3937L43.2902 22.3673L43.3605 22.297L43.4045 22.2521L43.4494 22.2081L43.4934 22.1554L43.5461 22.0939L43.59 22.0411L43.6428 21.9796L43.6691 21.9347L43.6955 21.9083L44.0578 21.4503L44.5773 20.9386L44.6125 20.9035L44.6476 20.8595L44.6828 20.8243L44.7277 20.7892L44.7541 20.7452L44.7893 20.7101L44.8156 20.6652L44.8684 20.5949L44.8859 20.5509L44.9035 20.5158L44.9299 20.4806L44.9475 20.4454L44.965 20.4191L44.9826 20.3488L44.9914 20.3214V20.2951L45.0002 20.2687V20.1281L44.9914 20.1105L44.9826 20.0841V20.0665L44.965 20.0314L44.9562 20.004L44.9475 19.9865L44.9035 19.9425L44.8859 19.9337L44.8771 19.9249L44.8596 19.9161L44.8332 19.9074L44.8156 19.8986L44.7893 19.8898L44.7189 19.8546H44.7101L44.6916 19.8458L44.6828 19.837L44.6652 19.7931L44.6476 19.7404L44.6301 19.7052L44.6125 19.6691L44.5949 19.6427L44.5861 19.6163L44.5685 19.59L44.5246 19.546L44.4894 19.5197L44.4807 19.5109L44.4631 19.5021L44.4103 19.4669L44.3742 19.4581L44.3566 19.4493H44.3478L44.3303 19.4406H44.3127L44.2775 19.4318H44.216L44.0754 19.4669L44.0578 19.4757L44.0393 19.4845L44.0305 19.4581V19.4406L44.0217 19.423L44.0129 19.4142L44.0041 19.3966L43.9865 19.3693L43.9777 19.3605L43.9689 19.3429L43.9514 19.3341L43.9426 19.3165L43.9162 19.3077L43.9074 19.299L43.8723 19.2814L43.8459 19.2726L43.8283 19.2638H43.8019L43.7756 19.255H43.7131L43.6867 19.2638H43.6603L43.5549 19.299L43.5285 19.3165L43.5021 19.3253L43.4494 19.3605L43.423 19.3878L43.3957 19.4142L43.3781 19.423L43.3518 19.4493L43.3254 19.4669L43.2902 19.5021L43.2726 19.5285L43.2551 19.546L43.2375 19.5724L43.2287 19.59L43.1935 19.6251L43.176 19.6515L43.1496 19.6867L43.1232 19.714L43.0969 19.7492L43.0695 19.7843L42.6818 20.3576L42.6643 20.3927L42.6115 20.4718L42.5851 20.4894L42.5676 20.5158L42.55 20.5333L42.5148 20.5861L42.4973 20.6036L42.4885 20.6212L42.4709 20.6388L42.4533 20.6476L42.4445 20.6652L42.4172 20.6925L42.4084 20.7101L42.3908 20.7189L42.3644 20.7452H42.3469L42.3293 20.7628H42.3205L42.3117 20.7716H42.2853L42.2766 20.7628L42.259 20.5949L42.2326 20.5158V20.507L42.2238 20.4982L42.215 20.4806L42.2062 20.4718L42.1975 20.4454L42.1799 20.4191L42.1535 20.4015L42.1271 20.3751L42.0998 20.339L42.0734 20.3214L42.0471 20.2951L42.0207 20.2775L42.0031 20.2687L41.9943 20.2599L41.968 20.2423L41.9416 20.2335L41.9064 20.2247L41.8273 20.1984H41.7209L41.6945 20.2072L41.6594 20.216L41.633 20.2247L41.6066 20.2423L41.5803 20.2511L41.5539 20.2687L41.5363 20.2863L41.51 20.3038L41.4924 20.3214L41.4748 20.3488L41.4562 20.3751L41.4387 20.4015L41.4299 20.4279L41.4123 20.463L41.4035 20.4894L41.3947 20.5245L41.3859 20.5421V20.6837L41.4035 20.7189L41.4123 20.7628L41.4299 20.798L41.4475 20.8156L41.4562 20.8419L41.6594 21.089L41.6769 21.1242L41.6945 21.1681L41.7121 21.2384L41.7209 21.2824V21.3185L41.7121 21.3712V21.4152L41.6418 21.7326V21.8468L41.6506 21.8732L41.6594 21.9083V21.9347L41.6769 21.9796V21.9884L41.6857 22.006V22.0324L41.6945 22.0411V22.1554L41.6857 22.1642V22.173L41.6682 22.1906V22.1993L41.633 22.2345L41.6242 22.2521L41.6154 22.2609L41.6066 22.2785L41.5978 22.2882L41.5891 22.3058L41.5715 22.3146L41.5539 22.341L41.5451 22.3585L41.5187 22.3849L41.5012 22.4113L41.466 22.4464L41.4562 22.464L41.4299 22.4904L41.4211 22.5079L41.3947 22.5343L41.3771 22.5607L41.3508 22.587L41.3332 22.6144L41.2893 22.6583L41.2717 22.6847L41.2453 22.7111L41.2189 22.7462L41.1926 22.7726L41.1662 22.8077L41.1398 22.8341L41.1125 22.8693L41.0861 22.8956L41.0598 22.9308L41.0334 22.9669L40.9719 23.0372L40.9367 23.0724L40.9103 23.1076L40.8752 23.1515L40.8488 23.1867L40.8127 23.2218L40.7687 23.2667L40.7424 23.3019L40.6369 23.4337L40.593 23.4689L40.5578 23.5216L40.5139 23.5656L40.4777 23.6105L40.4426 23.6544L40.3986 23.6984L40.3547 23.7511L40.3195 23.7951L38.3889 25.9728L38.3713 25.964L38.3625 25.9552L38.3273 25.9376H38.301L38.2834 25.9288H38.133L38.1154 25.9376H38.0891L38.0539 25.9552H38.0275L38.0012 25.964L37.9836 25.9728L37.9396 25.9904L37.9133 26.0079L37.8947 26.0167L37.8684 26.0255L37.8508 26.0431L37.798 26.0695L37.7453 26.1046L37.7277 26.131L37.7014 26.1574L37.6838 26.1759L37.6662 26.2023L37.6223 26.2374L37.6047 26.255L37.5871 26.2814L37.5685 26.299L37.5334 26.3341L37.5158 26.3429L37.4982 26.3605L37.4807 26.3693L37.4719 26.3868L37.4553 26.3947V26.3693L37.4543 26.3673V26.3605L37.4475 26.3536L37.4465 26.3517V26.299L37.4445 26.2951L37.4367 26.2638L37.4279 26.2199V26.1847L37.4191 26.1398L37.4113 26.1085V26.1046L37.4025 26.0519L37.385 25.964L37.384 25.9552V25.9464L37.381 25.9435L37.3762 25.9103L37.3732 25.9025L37.3664 25.8497L37.3586 25.8253V25.8224L37.3576 25.8195V25.8136L37.3518 25.8019L37.3488 25.7931V25.7697L37.341 25.7462V25.7345L37.3351 25.7286L37.3322 25.7199V25.7169L37.3312 25.713V25.6906L37.3176 25.6447L37.3146 25.6193L37.3098 25.6027L37.3049 25.5675L37.2961 25.5138L37.2863 25.4855L37.2795 25.4347H37.2785L37.2609 25.3644L37.2521 25.3029L37.2385 25.2501L37.2336 25.2238L37.2307 25.2111L37.2248 25.1701V25.1437L37.216 25.1085L37.2072 25.0646V25.0294L37.1984 25.0031V24.9679L37.1896 24.9415V24.9064L37.1809 24.8615V24.6681L37.1896 24.6242V24.589L37.1984 24.5441L37.2072 24.4913L37.2248 24.4035L37.2424 24.3595L37.2609 24.3068L37.2785 24.254L37.2961 24.2003L37.3049 24.174L37.3137 24.1564L37.3225 24.1036L37.34 24.0509L37.3576 24.0158V23.9894L37.3664 23.9718L37.384 23.9279L37.3928 23.8829L37.4191 23.7775L37.4279 23.7599V23.7511L37.4455 23.716V23.6808L37.4543 23.6544L37.4719 23.5841V23.548L37.4807 23.5216V23.504L37.4894 23.4249V23.3898L37.4982 23.3634V23.0548L37.4894 23.0109V22.9669L37.4807 22.9308L37.4719 22.8341L37.4631 22.755L37.4543 22.7286V22.7023L37.4455 22.6583L37.4279 22.6144L37.4191 22.5695V22.5431L37.4103 22.5167L37.3928 22.4288L37.384 22.4201V22.4025L37.3752 22.3849L37.3664 22.3322L37.3576 22.3058L37.3488 22.2882L37.3312 22.2169L37.3049 22.1554L37.2873 22.0851L37.2521 21.9796L37.2336 21.9171L37.216 21.8732L37.2072 21.8292L37.1896 21.7589L37.1721 21.715V21.6886L37.1633 21.6622L37.1545 21.6447V21.6173L37.1457 21.6085L37.1369 21.5734V21.5294L37.1281 21.4943V21.4503L37.1193 21.4152V21.3185L37.1105 21.2736V20.7716L37.1193 20.7189V20.3751L37.1105 20.3302V20.1984L37.1018 20.1544V20.0753L37.093 20.0402V20.004L37.0842 19.9601L37.0754 19.9249V19.8898L37.0666 19.8546V19.8283L37.0578 19.7931L37.049 19.7492L37.0441 19.7404L37.0402 19.7228L37.0314 19.6954L36.9875 19.5636L36.9611 19.5285L36.9523 19.5021L36.9435 19.4845L36.925 19.4669L36.9162 19.4493L36.8986 19.4318L36.8898 19.4142L36.8723 19.4054L36.8547 19.379L36.8283 19.3693L36.8107 19.3517L36.7756 19.3253L36.7404 19.3077L36.7141 19.299L36.6965 19.2902L36.6174 19.2638L36.5988 19.255L36.5725 19.2462H36.5461L36.5197 19.2374H36.4846L36.423 19.2286H36.3703L35.5676 19.2726L35.1799 19.2023L35.1184 19.1759L35.048 19.1671L34.9953 19.1495L34.9416 19.1408L34.8537 19.1232H34.7746L33.9191 19.1935H33.884L33.8752 19.2023H33.7785L33.7697 19.1935H33.717L33.7082 19.1847H33.6457L33.593 19.1671H33.5578L33.549 19.1583H33.5226L33.5051 19.1495L33.091 19.0431L32.509 19.0167L31.9094 19.0617L31.1867 19.1583L31.1516 19.1671H30.966L30.9396 19.1583H30.8781L30.8342 19.1495H30.8078L30.7814 19.1408H30.7277L30.6838 19.132L30.631 19.1144H30.6047L30.5783 19.1056H30.5432L30.4904 19.088H30.4553L30.4016 19.0704L30.34 19.0617L30.2873 19.0431L30.1291 19.0167H30.0842L30.0402 19.0079H29.9963L29.9435 18.9992H29.7316L29.6613 19.0079L29.6086 19.0255L29.5383 19.0343L29.4855 19.0431L29.4318 19.0519L29.3703 19.0617L29.3176 19.0792L29.2736 19.088H29.2473L29.2209 19.0968L29.1769 19.1056L29.132 19.1144L29.0881 19.1232L29.0178 19.1408L28.9914 19.1495H28.9738L28.9387 19.1583L28.2512 19.2023L27.5461 19.1671L27.4748 19.1759L27.3518 19.1935L27.2814 19.2023L27.1574 19.2286L27.0871 19.2374L26.9641 19.2726L26.8937 19.2814L26.7697 19.3253L26.6379 19.3605L26.5764 19.3878L26.5051 19.4142L26.4787 19.423H26.4523L26.3996 19.4406L26.3644 19.4493H26.3381L26.3117 19.4581H26.2414L26.2053 19.4669H26.1086L26.0734 19.4581H25.9943L25.4914 19.379L25.4211 19.3693H25.1213L25.0685 19.379H25.0158L24.9543 19.3966L24.9006 19.4054L24.8478 19.4142L24.7951 19.4318L24.7512 19.4493L24.6457 19.4845L24.6008 19.5021L24.425 19.6076L24.381 19.6427L24.3371 19.6691L24.3019 19.7052L24.257 19.7404L24.2219 19.7755L24.1867 19.8195L24.1516 19.8546L24.0812 19.9425L24.0461 19.9952L24.0109 20.0402L23.9846 20.0929L23.966 20.1193L23.9309 20.1896L23.8957 20.2775L23.8869 20.3214L23.8605 20.3839L23.8518 20.4367L23.8342 20.4982L23.8254 20.5245L23.799 20.63L23.7814 20.7013L23.7287 20.9386L23.7199 21.0275L23.7111 21.0538V21.0802L23.6935 21.1329L23.6848 21.1857L23.6672 21.2296L23.6584 21.2736L23.6496 21.3185L23.6398 21.3361L23.631 21.3624L23.6223 21.38V21.3888L23.6135 21.3976L23.6047 21.4327L23.5959 21.4415V21.4503L23.5871 21.4679L23.5783 21.4767L23.5607 21.5118L23.5519 21.5206L23.548 21.5294L23.5344 21.5558L23.5168 21.5734L23.4992 21.5997L23.4816 21.6173L23.4465 21.6349L23.4201 21.6535L23.385 21.671L23.3322 21.7062L23.3049 21.7326L23.2434 21.7853L23.217 21.8117L23.1994 21.838L23.1467 21.8908L23.1203 21.9259L23.1027 21.9611L23.05 22.0236L23.0148 22.0939L22.9699 22.173L22.9348 22.2521L22.9172 22.297L22.8996 22.3497L22.882 22.3849L22.8644 22.4376L22.8469 22.4816L22.8381 22.5255L22.8117 22.632L22.7853 22.7374L22.7502 22.8429L22.7326 22.8605L22.6975 22.9132L22.6799 22.9406L22.6613 22.9669L22.6086 23.0197L22.591 23.046L22.5646 23.0636L22.5295 23.09L22.5031 23.1163L22.3976 23.1954L22.3801 23.213L22.3625 23.2218L22.3351 23.2482L22.3088 23.2755L22.2912 23.2931L22.2736 23.3019L22.2473 23.3283L22.2297 23.3546L22.2033 23.3722L22.1857 23.3986L22.133 23.4513L22.1242 23.4689L22.1066 23.4865L22.0803 23.5392L22.0715 23.5743L22.0539 23.6017L22.0451 23.6281L22.0363 23.6632L22.0275 23.6896L22.0178 23.7247V23.7599L22.0002 23.8829V23.9894L22.009 24.0245V24.0597L22.0178 24.0949L22.0275 24.13L22.0363 24.1652L22.0451 24.1915L22.0539 24.2277L22.0627 24.254L22.0803 24.2804L22.0891 24.3156L22.1154 24.3419L22.133 24.3683L22.1506 24.3859L22.1857 24.4386L22.2121 24.4562L22.2297 24.4826L22.2648 24.5177L22.3088 24.5538L22.3351 24.5802L22.3713 24.6242L22.4064 24.6593L22.4328 24.7033L22.468 24.7384L22.5031 24.7824L22.5295 24.8263L22.5646 24.8702L22.591 24.924L22.6174 24.9679L22.6437 25.0206L22.6701 25.0646L22.6975 25.1261L22.7238 25.1701L22.7414 25.2238L22.7766 25.3292L22.7941 25.3732L22.8117 25.4347H22.8098L22.8361 25.505L22.8537 25.5753L22.8566 25.5851L22.8644 25.629L22.8742 25.6593L22.881 25.7169L22.8986 25.7785L22.9016 25.7902L22.9084 25.8312L22.9172 25.8937L22.9309 25.9728L22.9338 25.9904V26.0958L22.9514 26.2013L22.9601 26.2452L22.9777 26.3077L23.0129 26.4132L23.0393 26.4572L23.0656 26.5187L23.1008 26.5714L23.1359 26.6251L23.1799 26.6867L23.216 26.7394L23.26 26.7921L23.3127 26.8449L23.3654 26.9152L23.383 26.9249L23.3918 26.9425L23.4182 26.9777L23.4357 26.9865L23.4445 27.004L23.4885 27.048V27.0568L23.4973 27.0656L23.506 27.0831L23.5158 27.0919H23.5246L23.5422 27.1271L23.5598 27.1535L23.5861 27.1798L23.6213 27.2326L23.6389 27.2599L23.6476 27.2687L23.6564 27.2863L23.7004 27.3302L23.7092 27.3566L23.7268 27.3829L23.7355 27.4005L23.7531 27.4269L23.7619 27.4533L23.7795 27.4708L23.7883 27.4884L23.7971 27.5148L23.8146 27.5499L23.8234 27.5685L23.8332 27.5861L23.842 27.6036V27.6212L23.8508 27.6388L23.8596 27.6652V27.6827L23.8771 27.7003V27.7267L23.8859 27.7443L23.8947 27.7794L23.9035 27.8058L23.9211 27.8761L23.9299 27.9122L23.9387 27.9562L23.9475 27.9913L23.9562 28.0441L23.9738 28.132L23.9826 28.1847L23.9914 28.2296L24.0002 28.2736L24.006 28.298L6.04511 24.0206L6.43378 22.6193L11.882 2.93372Z" fill="url(#paint0_linear_708_792)"/>
<defs>
<linearGradient id="paint0_linear_708_792" x1="36.7375" y1="11.5819" x2="22.8672" y2="61.698" gradientUnits="userSpaceOnUse">
<stop stop-color="#E3E357"/>
<stop offset="1" stop-color="#A29C26"/>
</linearGradient>
</defs>
</svg>
